<svg width="400" height="400" viewBox="0 0 400 400" fill="none" xmlns="http://www.w3.org/2000/svg">
<path d="M182.662 302.749C182.787 301.054 182.985 299.571 183.101 299.455C183.217 299.339 188.753 299.215 195.406 299.178C202.839 299.137 208.464 298.958 210 298.713C215.902 297.772 217.093 297.531 222 296.29C228.086 294.749 228.534 294.615 232.667 293.105C240.176 290.361 251.457 283.812 258.309 278.219C259.693 277.09 263.152 273.842 265.998 271C271.39 265.616 277.84 257.571 280.906 252.405C282.694 249.392 285.744 243.34 286.709 240.892C287.081 239.949 287.72 238.426 288.13 237.505C288.539 236.586 289.046 235.233 289.256 234.5C289.465 233.766 289.928 232.192 290.286 231C290.642 229.808 291.1 228.009 291.303 227C291.505 225.991 291.914 223.967 292.212 222.5C292.51 221.034 292.875 219.024 293.022 218.033C293.169 217.044 293.487 216.108 293.728 215.955C294.23 215.637 301.011 215.564 301.805 215.869C302.23 216.032 302.296 216.432 302.148 217.952C301.923 220.277 301.396 223.728 300.998 225.5C300.834 226.234 300.521 227.659 300.304 228.667C299.094 234.288 296.372 242.094 293.563 248.004C288.425 258.812 280.016 270.818 272.811 277.632C265.173 284.855 258.865 289.884 253.182 293.277C249.579 295.428 242.366 299.333 241.995 299.333C241.871 299.333 241.334 299.542 240.801 299.797C238.684 300.811 233.728 302.799 231.834 303.394C228.871 304.324 221.082 306.298 218.879 306.677C217.846 306.855 216.137 307.152 215.084 307.338C210.865 308.081 203.653 308.667 198.714 308.667C192.231 308.668 182.917 308.009 182.588 307.526C182.454 307.328 182.364 306.867 182.389 306.5C182.413 306.133 182.536 304.445 182.662 302.749Z" fill="#13A7DA"/>
<path d="M159.084 108.85C159.312 108.778 160.55 108.397 161.834 108.003C163.117 107.608 165.542 106.773 167.223 106.147C173.162 103.936 181.676 102.084 190.166 101.154C195.045 100.62 208.893 100.502 211.689 100.97C212.685 101.137 214.7 101.458 216.166 101.684C220.635 102.371 231.919 105.393 236.166 107.04C239.647 108.388 248.72 112.801 252.389 114.929C259.732 119.187 266.552 124.595 273.357 131.555C279.33 137.664 284.803 144.313 284.595 145.21C284.485 145.689 278.019 150.326 277.455 150.331C277.247 150.332 276.809 149.921 276.481 149.417C275.559 147.999 268.492 139.839 265.341 136.554C261.999 133.07 257.886 129.688 252.823 126.26C246.537 122.005 231.618 114.873 225.834 113.357C214.778 110.462 212.995 110.235 201.333 110.245C189.818 110.254 186.13 110.65 177.279 112.828C174.041 113.625 172.214 114.222 165.167 116.787C162.152 117.885 161.905 117.722 160.108 113.464C158.62 109.937 158.424 109.055 159.084 108.85Z" fill="#13A7DA"/>
<path d="M94.3734 229.208C96.3787 228.805 101.94 228.331 102.438 228.522C102.773 228.651 103.265 229.674 103.685 231.117C105.795 238.382 108.409 244.687 112.132 251.5C119.133 264.306 131.547 277.287 144.166 284.996C149.058 287.983 149.921 288.472 153 289.991C155.975 291.46 157.501 292.095 161.75 293.634C162.713 293.982 164.7 294.719 166.166 295.273C167.633 295.826 169.246 296.367 169.75 296.479C170.254 296.589 170.667 296.885 170.667 297.136C170.667 297.759 169.706 302.867 169.291 304.454C168.971 305.677 168.901 305.73 167.894 305.531C166.57 305.269 161.265 303.58 158.166 302.434C144.187 297.265 131.984 289.299 121.149 278.273C112.61 269.584 107.347 262.353 102.389 252.5C98.7035 245.174 94.1943 233.845 93.7897 230.891C93.596 229.478 93.6386 229.356 94.3734 229.208Z" fill="#13A7DA"/>
<path d="M91.7265 199.834C92.6103 190.871 95.6592 178.684 99.2932 169.587C102.485 161.597 110.118 148.687 115.801 141.667C119.266 137.386 126.609 130.1 132 125.592C136.811 121.57 144.995 115.78 146.382 115.418C146.875 115.289 147.341 115.98 148.863 119.096C150.178 121.79 150.65 123.089 150.446 123.454C150.286 123.74 148.132 125.347 145.661 127.026C133.185 135.496 121.86 147.616 114.436 160.439C110.255 167.661 106.053 176.962 104.619 182.166C104.266 183.45 103.77 185.25 103.519 186.166C103.267 187.084 102.573 190.742 101.975 194.298C100.939 200.47 100.916 200.781 101.488 201.199C101.966 201.549 105.362 201.615 118.528 201.532C133.548 201.438 135.05 201.377 135.866 200.843C136.358 200.52 138.823 198.337 141.343 195.991C146.664 191.039 148.197 189.933 149.748 189.933C152.097 189.933 154.973 191.864 156.495 194.463C157.399 196.005 159.5 201.978 163.366 214C166.696 224.354 168.059 228.078 168.581 228.25C169.115 228.427 169.564 227.218 170.211 223.863C170.809 220.759 171.799 215.882 173.701 206.667C174.439 203.092 175.165 199.492 175.314 198.667C175.463 197.842 175.964 195.292 176.427 193C177.381 188.284 177.423 188.073 178.311 183.5C178.667 181.667 179.269 178.892 179.651 177.333C180.031 175.775 180.572 173.375 180.851 172C181.131 170.625 181.634 168.3 181.969 166.833C182.672 163.759 183.01 162.149 184.21 156.166C185.165 151.402 185.336 150.594 186.11 147.167C186.401 145.884 186.952 143.108 187.337 141C189.149 131.061 189.738 130 193.447 130C196.699 130 197.05 130.534 198.685 137.965C199.233 140.46 200.346 145.275 201.159 148.667C202.835 155.667 205.158 165.661 206.389 171.167C206.594 172.083 207.03 173.808 207.357 175C208.332 178.552 211.907 193.245 212.67 196.833C213.545 200.947 214.465 204.998 215.663 210C216.168 212.108 216.922 215.633 217.339 217.834C218.389 223.369 218.958 225.333 219.512 225.333C220.218 225.333 220.489 224.533 221.316 220C221.735 217.708 222.371 214.483 222.729 212.833C223.72 208.273 225.927 197.746 227.026 192.333C227.566 189.675 228.591 184.8 229.304 181.5C230.017 178.2 230.783 174.6 231.006 173.5C231.878 169.207 233.106 167.593 235.808 167.188C237.93 166.87 239.094 167.625 240.347 170.133C240.89 171.219 241.333 172.329 241.333 172.601C241.333 173.135 242.122 175.99 243.655 181C244.187 182.741 245.094 185.742 245.669 187.667C247.748 194.622 250.301 202.296 250.972 203.611C251.802 205.238 252.252 205.558 252.856 204.954C253.279 204.531 255.316 199.748 257.203 194.749C259.14 189.617 260.175 188.382 262.783 188.088C265.451 187.787 267.312 189.448 271.95 196.266C276.053 202.297 274.592 201.667 284.473 201.667C291.639 201.667 292.982 201.589 293.34 201.157C294.02 200.339 293.315 194.307 291.686 187C289.794 178.517 289.68 179.161 293.333 177.784C294.892 177.197 296.792 176.705 297.556 176.692C298.944 176.667 298.946 176.669 299.324 178.25C300.055 181.303 300.379 182.849 300.67 184.667C300.833 185.675 301.259 188.225 301.619 190.333C301.978 192.442 302.373 195.591 302.497 197.333C302.621 199.075 302.795 200.762 302.884 201.084C303.031 201.616 303.668 201.667 310.167 201.667C314.085 201.667 317.681 201.816 318.158 201.997C319.812 202.626 320.667 203.923 320.667 205.805C320.667 208.107 319.511 209.862 317.748 210.236C317.062 210.381 306.675 210.5 294.667 210.5C268.885 210.5 271.458 210.936 267.943 205.973C265.624 202.699 264.325 201.427 263.695 201.816C263.01 202.24 262.106 204.458 259.631 211.798C256.785 220.237 256.224 221.102 253.342 221.499C250.592 221.877 249.657 221.358 248.071 218.576C246.125 215.161 245.021 212.392 242.724 205.167C239.489 194.987 238.334 191.232 238.323 190.854C238.317 190.66 238.097 190.216 237.833 189.868C237.2 189.032 236.465 189.607 236.011 191.295C235.493 193.217 231.978 209.99 231.322 213.667C231.175 214.492 230.809 216.292 230.508 217.667C230.208 219.042 229.668 221.817 229.308 223.834C228.95 225.85 228.215 229.3 227.677 231.5C226.722 235.396 225.816 239.921 224.973 245C224.431 248.271 223.527 250.177 222.044 251.185C220.273 252.389 218.837 252.274 217.465 250.819C216.126 249.4 216.105 249.33 213.843 238.833C213.368 236.634 212.763 234.083 212.498 233.167C212.053 231.625 209.75 221.677 208.95 217.834C208.633 216.308 207.135 209.927 203.667 195.333C202.948 192.308 201.899 187.733 201.334 185.167C200.771 182.6 199.629 177.725 198.798 174.333C194.659 157.441 194.427 156.667 193.509 156.667C192.751 156.667 192.618 157.166 190.535 167.834C189.497 173.15 188.443 178.55 188.192 179.834C187.941 181.117 187.362 183.667 186.904 185.5C186.447 187.333 185.75 190.558 185.356 192.667C184.963 194.775 184.037 199.35 183.298 202.833C182.56 206.317 181.359 212.017 180.63 215.5C179.901 218.983 178.572 225.209 177.677 229.333C176.781 233.458 175.431 239.983 174.676 243.834C173.819 248.204 173.076 251.146 172.7 251.667C172.171 252.398 171.818 252.51 169.799 252.586C168.438 252.636 167.168 252.5 166.687 252.252C165.684 251.735 164.668 249.296 163.346 244.235C162.305 240.244 161.68 238.114 160.001 232.833C159.418 231 158.269 227.175 157.446 224.333C156.624 221.492 155.576 218.042 155.117 216.667C154.658 215.292 154.007 213.267 153.669 212.166C152.481 208.288 150.666 203.603 149.981 202.64C148.853 201.056 148.15 201.348 144.67 204.847C142.524 207.006 140.873 208.344 139.533 209.014C138.876 209.342 138.218 209.671 137.56 210C131.464 210 125.368 210 119.272 210C113.176 210 107.08 210 100.984 210C100.889 210.251 100.793 210.502 100.698 210.753C100.54 211.167 100.489 212.588 100.583 213.911C100.749 216.24 100.728 216.326 99.9221 216.633C99.4642 216.807 97.4789 217.057 95.5108 217.189C92.6196 217.382 91.8755 217.34 91.6379 216.964C91.2666 216.379 91.3318 203.836 91.7265 199.834Z" fill="#13A7DA"/>
</svg>
